<svg width="26" height="37" viewBox="0 0 26 37" fill="none" xmlns="http://www.w3.org/2000/svg">
<circle cx="13.5" cy="34.5" r="2.5" fill="#2B47FC"/>
<g clip-path="url(#clip0_1_440)">
<path d="M22.6 12.1999V5.7999H17.8H7.4H3.4C2.0744 5.7999 1 4.7255 1 3.3999V20.1999C1 21.9671 2.4328 23.3999 4.2 23.3999H22.6V16.9999" stroke="#2B47FC" stroke-width="1.05" stroke-linecap="square"/>
<path fill-rule="evenodd" clip-rule="evenodd" d="M25 17.0002H19.4C18.0744 17.0002 17 15.9258 17 14.6002C17 13.2746 18.0744 12.2002 19.4 12.2002H25V17.0002Z" stroke="#2B47FC" stroke-width="1.05" stroke-linecap="square"/>
<path d="M17.8 2.6V1H3.4C2.0744 1 1 2.0744 1 3.4C1 4.7256 2.0744 5.8 3.4 5.8" stroke="#2B47FC" stroke-width="1.05" stroke-linecap="square"/>
</g>
<defs>
<clipPath id="clip0_1_440">
<rect width="26" height="24" fill="white"/>
</clipPath>
</defs>
</svg>
