<svg width="250" height="165" viewBox="0 0 250 165" fill="none" xmlns="http://www.w3.org/2000/svg">
<g id="Columns">
<g id="colume 1">
<path id="Rectangle 6" d="M0 4.5C0 2.01472 2.01472 0 4.5 0C6.98528 0 9 2.01472 9 4.5V122H0V4.5Z" fill="#2D99FF"/>
<path id="Rectangle 7" d="M13 149.5C13 151.985 15.0147 154 17.5 154C19.9853 154 22 151.985 22 149.5V122H13V149.5Z" fill="#A5F3FF"/>
</g>
<g id="colume 2">
<path id="Rectangle 6_2" d="M38 26.5C38 24.0147 40.0147 22 42.5 22C44.9853 22 47 24.0147 47 26.5V122H38V26.5Z" fill="#2D99FF"/>
<path id="Rectangle 7_2" d="M51 140.5C51 142.985 53.0147 145 55.5 145C57.9853 145 60 142.985 60 140.5V122H51V140.5Z" fill="#A5F3FF"/>
</g>
<g id="colume 3">
<path id="Rectangle 6_3" d="M76 37.5C76 35.0147 78.0147 33 80.5 33C82.9853 33 85 35.0147 85 37.5V122H76V37.5Z" fill="#2D99FF"/>
<path id="Rectangle 7_3" d="M89 132.5C89 134.985 91.0147 137 93.5 137C95.9853 137 98 134.985 98 132.5V122H89V132.5Z" fill="#A5F3FF"/>
</g>
<g id="colume 4">
<path id="Rectangle 6_4" d="M114 66.5C114 64.0147 116.015 62 118.5 62C120.985 62 123 64.0147 123 66.5V123H114V66.5Z" fill="#2D99FF"/>
<path id="Rectangle 7_4" d="M127 125.5C127 127.985 129.015 130 131.5 130C133.985 130 136 127.985 136 125.5V123H127V125.5Z" fill="#A5F3FF"/>
</g>
<g id="colume 5">
<path id="Rectangle 6_5" d="M152 160.5C152 162.985 154.015 165 156.5 165C158.985 165 161 162.985 161 160.5V121H152V160.5Z" fill="#2D99FF"/>
<path id="Rectangle 7_5" d="M165 98.5C165 96.0147 167.015 94 169.5 94C171.985 94 174 96.0147 174 98.5V121H165V98.5Z" fill="#A5F3FF"/>
</g>
<g id="colume 6">
<path id="Rectangle 6_6" d="M190 131.5C190 133.985 192.015 136 194.5 136C196.985 136 199 133.985 199 131.5V121H190V131.5Z" fill="#2D99FF"/>
<path id="Rectangle 7_6" d="M203 55.5C203 53.0147 205.015 51 207.5 51C209.985 51 212 53.0147 212 55.5V121H203V55.5Z" fill="#A5F3FF"/>
</g>
<g id="colume 7">
<path id="Rectangle 6_7" d="M228 126.5C228 128.985 230.015 131 232.5 131C234.985 131 237 128.985 237 126.5V121H228V126.5Z" fill="#2D99FF"/>
<path id="Rectangle 7_7" d="M241 17.5C241 15.0147 243.015 13 245.5 13C247.985 13 250 15.0147 250 17.5V121H241V17.5Z" fill="#A5F3FF"/>
</g>
</g>
</svg>
