<svg width="21" height="24" viewBox="0 0 21 24" fill="none" xmlns="http://www.w3.org/2000/svg">
<g clip-path="url(#clip0_1_441)">
<path d="M13.5454 20.0293C13.5454 21.6853 12.1341 23.0402 10.4091 23.0402C8.68408 23.0402 7.27272 21.6853 7.27272 20.0293" stroke="#3A3A3A" stroke-width="1.04545" stroke-linecap="square"/>
<path fill-rule="evenodd" clip-rule="evenodd" d="M17.7273 13.0036C17.7273 10.4443 17.7273 7.98542 17.7273 7.98542C17.7273 4.12142 14.4341 0.959961 10.4091 0.959961C6.38409 0.959961 3.09091 4.12142 3.09091 7.98542C3.09091 7.98542 3.09091 10.4443 3.09091 13.0036C3.09091 17.0181 1 20.0291 1 20.0291H19.8182C19.8182 20.0291 17.7273 17.0181 17.7273 13.0036Z" stroke="#3A3A3A" stroke-width="1.04545" stroke-linecap="square"/>
<path d="M13.5454 20.0293C13.5454 21.6853 12.1341 23.0402 10.4091 23.0402C8.68408 23.0402 7.27272 21.6853 7.27272 20.0293" stroke="#3A3A3A" stroke-width="1.04545" stroke-linecap="square"/>
<path fill-rule="evenodd" clip-rule="evenodd" d="M17.7273 13.0036C17.7273 10.4443 17.7273 7.98542 17.7273 7.98542C17.7273 4.12142 14.4341 0.959961 10.4091 0.959961C6.38409 0.959961 3.09091 4.12142 3.09091 7.98542C3.09091 7.98542 3.09091 10.4443 3.09091 13.0036C3.09091 17.0181 1 20.0291 1 20.0291H19.8182C19.8182 20.0291 17.7273 17.0181 17.7273 13.0036Z" stroke="#3A3A3A" stroke-width="1.04545" stroke-linecap="square"/>
</g>
<defs>
<clipPath id="clip0_1_441">
<rect width="21" height="24" fill="white"/>
</clipPath>
</defs>
</svg>
