<svg width="18" height="21" viewBox="0 0 18 21" fill="none" xmlns="http://www.w3.org/2000/svg">
<g id="Savings 1" clip-path="url(#clip0_1_535)">
<g id="Page 1">
<g id="Menu">
<g id="Savings">
<g id="money bag">
<path id="Path" d="M10.1489 13.949C10.0705 13.8631 9.9713 13.7989 9.86877 13.7454C9.64552 13.629 9.40138 13.5584 9.15897 13.4946V15.3731C9.55243 15.3286 10.0042 15.1858 10.2107 14.8185C10.3094 14.643 10.329 14.4274 10.2888 14.2321C10.267 14.1263 10.222 14.0291 10.1489 13.949Z" fill="#2B47FC"/>
<path id="Path_2" d="M10.2329 14.8491C10.2345 14.8464 10.2354 14.8447 10.2371 14.8418C10.2357 14.8442 10.2343 14.8466 10.2329 14.8491Z" fill="#2B47FC"/>
<path id="Path_3" d="M7.31341 10.9462C7.24576 11.045 7.20332 11.1572 7.19161 11.2765C7.1799 11.396 7.18647 11.529 7.23188 11.6415C7.27512 11.7487 7.36569 11.8279 7.45917 11.8916C7.56408 11.963 7.67945 12.0187 7.79695 12.0659C7.89553 12.1056 8.00641 12.1436 8.12594 12.1802V10.4805C7.82398 10.5449 7.49406 10.6825 7.31341 10.9462Z" fill="#2B47FC"/>
<path id="Path_4" d="M10.2478 14.8228C10.2428 14.8317 10.2374 14.841 10.2321 14.8508C10.2383 14.8394 10.2432 14.831 10.2478 14.8228Z" fill="#2B47FC"/>
<path id="Path_5" d="M10.2535 14.8129C10.2548 14.8105 10.255 14.8103 10.2535 14.8129V14.8129Z" fill="#2B47FC"/>
<path id="Shape" d="M9.82075 4.56905C11.4182 3.22712 12.4856 0.203963 11.8287 0.0717369C10.9559 -0.104021 9.06055 0.666655 8.14445 0.802438C6.84512 0.95932 5.42997 -0.606538 4.63563 0.266271C3.98976 0.975923 5.09866 3.5567 6.83356 4.68101C1.65758 7.22493 -5.61761 19.9956 7.07434 20.9222C24.6358 22.2044 15.8422 7.04804 9.82075 4.56905ZM11.3289 14.6406C11.2749 15.1385 11.0111 15.5887 10.6167 15.8944C10.2002 16.2171 9.6779 16.3672 9.15893 16.4093V16.9594C9.15893 17.1066 9.09464 17.2489 8.98445 17.3464C8.83301 17.4804 8.61046 17.5134 8.42664 17.4288C8.24516 17.3452 8.12592 17.1591 8.12592 16.9594V16.3582C8.03693 16.3413 7.94859 16.3211 7.86128 16.2972C7.37625 16.1639 6.92635 15.9042 6.59772 15.5198C6.43402 15.3283 6.30056 15.1109 6.20825 14.8762C6.18414 14.8149 6.16265 14.7525 6.14382 14.6893C6.12677 14.6321 6.10918 14.574 6.10311 14.5145C6.09288 14.4145 6.11269 14.3125 6.15929 14.2235C6.25505 14.0403 6.45684 13.9297 6.66289 13.948C6.86568 13.966 7.04341 14.1068 7.10725 14.3001C7.12692 14.3596 7.14026 14.4206 7.16235 14.4795C7.18423 14.538 7.21067 14.5949 7.24175 14.649C7.30312 14.7557 7.38 14.854 7.46855 14.9393C7.65108 15.1152 7.88356 15.2295 8.12592 15.2975V13.2537C7.65202 13.131 7.16284 12.9726 6.7715 12.6683C6.58131 12.5203 6.41993 12.3365 6.31424 12.119C6.20272 11.8894 6.15652 11.6335 6.15464 11.3795C6.15272 11.1215 6.20173 10.8658 6.30935 10.6307C6.41015 10.4107 6.55527 10.2131 6.7332 10.0493C7.11368 9.69908 7.61906 9.50375 8.12597 9.43201V9.38704V8.86095C8.12597 8.71381 8.19026 8.5714 8.30045 8.47396C8.45194 8.34001 8.6744 8.3069 8.85826 8.39159C9.0397 8.47515 9.15898 8.66123 9.15898 8.86095V9.38704V9.42889C9.22652 9.43739 9.29387 9.44757 9.36087 9.45973C9.85865 9.5498 10.3455 9.75536 10.7095 10.1142C10.882 10.2842 11.0231 10.4867 11.1224 10.7076C11.1501 10.7692 11.1744 10.8323 11.1954 10.8966C11.2149 10.9565 11.2346 11.0182 11.244 11.0808C11.2589 11.1806 11.2437 11.2838 11.2009 11.3752C11.1134 11.5623 10.917 11.6815 10.7104 11.6727C10.5074 11.6638 10.3235 11.5317 10.2508 11.3419C10.2292 11.2855 10.2184 11.2258 10.1963 11.1695C10.174 11.1125 10.1451 11.0581 10.1119 11.0068C10.0473 10.907 9.9635 10.8214 9.86789 10.7509C9.66085 10.598 9.40974 10.5184 9.15883 10.4739V12.4297C9.45703 12.5011 9.75548 12.5789 10.0412 12.6916C10.473 12.8619 10.8822 13.123 11.1179 13.5347C11.0813 13.4705 11.0457 13.408 11.1191 13.5368C11.1911 13.6633 11.1567 13.603 11.1206 13.5396C11.3081 13.8701 11.3697 14.2652 11.3289 14.6406Z" fill="#2B47FC"/>
</g>
</g>
</g>
</g>
</g>
<defs>
<clipPath id="clip0_1_535">
<rect width="18" height="21" fill="white"/>
</clipPath>
</defs>
</svg>
